<svg width="170" height="186" viewBox="0 0 170 186" fill="none" xmlns="http://www.w3.org/2000/svg">
<g clip-path="url(#clip0_4753_1043)">
<path d="M118.047 37.7352C106.262 35.8611 92.8422 34.8611 78.8662 34.8611C66.0757 34.8611 53.7528 35.6974 42.7242 37.2743C42.7268 37.1055 42.7293 36.9367 42.7368 36.7679C43.0292 26.9715 47.1553 17.6777 54.2331 10.8728C61.3109 4.06793 70.7791 0.291902 80.6138 0.351776C90.4485 0.411649 99.8696 4.30268 106.864 11.1932C113.857 18.0838 117.869 27.4272 118.041 37.2264C118.044 37.3977 118.047 37.5665 118.047 37.7352Z" fill="#364D9D"/>
<g opacity="0.1">
<path d="M85.3247 0.337878C80.094 -0.366192 74.7732 0.032854 69.7071 1.50915C64.641 2.98545 59.9428 5.50606 55.9168 8.90761C51.8909 12.3092 48.6271 16.5157 46.337 21.2547C44.0468 25.9937 42.7815 31.1594 42.6229 36.4169C42.6153 36.5857 42.6128 36.7544 42.6103 36.9232C45.8868 36.4547 49.2798 36.0533 52.7631 35.7181C53.1891 26.9593 56.6788 18.6255 62.6266 12.1629C68.5744 5.70024 76.6049 1.51659 85.3247 0.337878Z" fill="white"/>
</g>
<path d="M134.523 40.7128C129.098 39.2474 123.596 38.0835 118.041 37.2265C108.938 35.8207 99.7602 34.9418 90.5546 34.5942C86.7199 34.438 82.8146 34.3574 78.8662 34.3574C75.7369 34.3574 72.6327 34.4078 69.5716 34.5086C60.592 34.7729 51.6337 35.5272 42.7369 36.7681C36.151 37.6718 29.629 38.9893 23.2099 40.7128C8.24301 44.8364 1.52588e-05 50.363 1.52588e-05 56.2725C1.52588e-05 62.1821 8.24301 67.7087 23.2099 71.8323C33.7355 74.7342 46.713 76.7116 60.8534 77.6184C66.69 77.9962 72.7238 78.1877 78.8662 78.1877C85.0289 78.1877 91.0829 77.9937 96.9372 77.6159C109.806 76.7871 121.712 75.0717 131.676 72.5779C131.729 72.5628 131.78 72.5502 131.833 72.5376C132.505 72.3714 133.168 72.1975 133.822 72.0237C134.057 71.9582 134.29 71.8953 134.523 71.8323C134.536 71.827 134.549 71.8227 134.563 71.8197C134.785 71.7592 135.005 71.6963 135.225 71.6358C135.665 71.5099 136.1 71.3864 136.527 71.258C136.547 71.2529 136.565 71.2479 136.583 71.2429C136.954 71.132 137.318 71.0212 137.68 70.9103C137.975 70.8171 138.269 70.7265 138.559 70.6333C138.772 70.5652 138.982 70.4972 139.189 70.4292C139.34 70.3788 139.49 70.331 139.636 70.2806C139.836 70.2151 140.036 70.1471 140.233 70.0791C140.316 70.0514 140.4 70.0237 140.48 69.9934C140.67 69.9305 140.855 69.865 141.039 69.7995C141.239 69.7289 141.438 69.6559 141.636 69.5854C141.8 69.5274 141.964 69.467 142.126 69.4065C142.262 69.3536 142.396 69.3032 142.533 69.2529C142.905 69.1143 143.269 68.9707 143.628 68.8297C143.807 68.7566 143.986 68.6861 144.163 68.613C144.338 68.5425 144.515 68.4695 144.687 68.3964C144.97 68.278 145.248 68.1596 145.521 68.0412C145.652 67.9808 145.786 67.9228 145.915 67.8674C146.014 67.8221 146.11 67.7793 146.208 67.7339C146.279 67.7037 146.35 67.6709 146.418 67.6382C146.673 67.5223 146.926 67.4039 147.174 67.2855C148.124 66.8321 149.012 66.3686 149.836 65.8951C155.005 62.9453 157.732 59.6732 157.732 56.2726C157.732 50.363 149.489 44.8364 134.523 40.7128ZM134.386 71.3486C123.848 74.253 110.835 76.2304 96.6566 77.1297C90.8907 77.495 84.9304 77.6839 78.8662 77.6839C72.8223 77.6839 66.882 77.4975 61.134 77.1322C46.933 76.2355 33.8998 74.2581 23.3464 71.3486C8.61712 67.2881 0.505568 61.9352 0.505568 56.2725C0.506391 55.7722 0.569237 55.2739 0.692681 54.7889C1.98174 49.6804 9.91136 44.8994 23.3464 41.1965C29.717 39.4864 36.189 38.1765 42.7243 37.2744C51.6746 36.0265 60.687 35.2697 69.7207 35.0073C72.7339 34.9091 75.7824 34.8604 78.8662 34.8612C82.7615 34.8612 86.6138 34.9393 90.4004 35.0904C99.6596 35.435 108.891 36.3181 118.047 37.7354C123.553 38.5885 129.008 39.7439 134.386 41.1965C147.819 44.8994 155.746 49.6779 157.037 54.7838C157.163 55.2702 157.226 55.7704 157.227 56.2725C157.227 61.9352 149.115 67.2881 134.386 71.3486Z" fill="#3F3D56"/>
<path d="M157.588 56.5019C157.588 59.8673 154.805 63.0513 149.836 65.8952C149.009 66.3688 148.119 66.8323 147.174 67.2857C146.926 67.4041 146.673 67.5225 146.418 67.6384C146.35 67.6711 146.279 67.7038 146.208 67.7341C146.11 67.7794 146.014 67.8222 145.915 67.8676C145.786 67.923 145.652 67.9809 145.521 68.0414C145.248 68.1598 144.97 68.2782 144.687 68.3966C144.515 68.4696 144.338 68.5427 144.163 68.6132C143.986 68.6862 143.807 68.7568 143.628 68.8298C143.269 68.9709 142.905 69.1145 142.533 69.253C142.396 69.3034 142.262 69.3538 142.126 69.4067C141.964 69.4671 141.8 69.5276 141.636 69.5855C141.438 69.656 141.239 69.7291 141.039 69.7996C140.855 69.8651 140.67 69.9306 140.48 69.9936C140.4 70.0238 140.316 70.0515 140.233 70.0792C140.036 70.1472 139.836 70.2153 139.636 70.2808C139.49 70.3311 139.34 70.379 139.189 70.4294C138.981 70.4974 138.772 70.5654 138.559 70.6334C138.269 70.7266 137.975 70.8173 137.68 70.9105C137.318 71.0213 136.954 71.1322 136.583 71.243C136.565 71.248 136.547 71.2531 136.527 71.2581C136.1 71.3866 135.665 71.51 135.225 71.636C135.005 71.6964 134.785 71.7594 134.563 71.8198C134.549 71.8229 134.536 71.8271 134.523 71.8324C134.29 71.8954 134.057 71.9584 133.822 72.0239C133.17 72.1952 132.505 72.369 131.833 72.5378C131.78 72.5504 131.729 72.5629 131.676 72.5781C121.982 74.9912 110.089 76.7495 96.9271 77.5984C91.1613 77.9687 85.1502 78.1652 78.9749 78.1652C72.744 78.1652 66.6823 77.9662 60.8711 77.5883C26.18 75.3338 0.361511 66.7491 0.361511 56.5019C0.364243 55.8784 0.459615 55.2587 0.644527 54.6631C0.659709 54.7059 0.674888 54.7462 0.692663 54.789C4.29966 64.2302 29.8984 71.8602 63.1132 73.7217C68.2016 74.0088 73.472 74.1575 78.8662 74.1575C84.2832 74.1575 89.5738 74.0063 94.6824 73.7192C127.869 71.8501 153.443 64.2176 157.037 54.784C157.098 54.6328 157.151 54.4817 157.196 54.3306C157.453 55.0262 157.585 55.761 157.588 56.5019Z" fill="#3F3D56"/>
<path d="M23.1718 53.7902C18.965 53.7902 14.4939 52.8883 14.4939 51.2167C14.4939 49.545 18.965 48.6431 23.1718 48.6431C27.3787 48.6431 31.8498 49.545 31.8498 51.2167C31.8498 52.8883 27.3787 53.7902 23.1718 53.7902ZM23.1718 49.1469C18.3557 49.1469 14.9994 50.2377 14.9994 51.2167C14.9994 52.1956 18.3557 53.2865 23.1718 53.2865C27.988 53.2865 31.3443 52.1956 31.3443 51.2167C31.3443 50.2377 27.988 49.1469 23.1718 49.1469Z" fill="#3F3D56"/>
<path d="M41.1189 65.6296C36.9121 65.6296 32.4409 64.7277 32.4409 63.056C32.4409 61.3844 36.9121 60.4824 41.1189 60.4824C45.3258 60.4824 49.7969 61.3844 49.7969 63.056C49.7969 64.7277 45.3258 65.6296 41.1189 65.6296ZM41.1189 60.9862C36.3028 60.9862 32.9465 62.0771 32.9465 63.056C32.9465 64.0349 36.3028 65.1258 41.1189 65.1258C45.935 65.1258 49.2914 64.0349 49.2914 63.056C49.2914 62.0771 45.935 60.9862 41.1189 60.9862Z" fill="#3F3D56"/>
<path d="M134.393 53.7902C130.186 53.7902 125.715 52.8883 125.715 51.2167C125.715 49.545 130.187 48.6431 134.393 48.6431C138.6 48.6431 143.071 49.545 143.071 51.2167C143.071 52.8883 138.6 53.7902 134.393 53.7902ZM134.393 49.1469C129.577 49.1469 126.221 50.2377 126.221 51.2167C126.221 52.1956 129.577 53.2865 134.393 53.2865C139.209 53.2865 142.566 52.1956 142.566 51.2167C142.566 50.2377 139.209 49.1469 134.393 49.1469Z" fill="#3F3D56"/>
<path d="M116.446 65.6296C112.239 65.6296 107.768 64.7277 107.768 63.056C107.768 61.3844 112.239 60.4824 116.446 60.4824C120.653 60.4824 125.124 61.3844 125.124 63.056C125.124 64.7277 120.653 65.6296 116.446 65.6296ZM116.446 60.9862C111.63 60.9862 108.274 62.0771 108.274 63.056C108.274 64.0349 111.63 65.1258 116.446 65.1258C121.262 65.1258 124.619 64.0349 124.619 63.056C124.619 62.0771 121.262 60.9862 116.446 60.9862Z" fill="#3F3D56"/>
<path d="M78.7826 71.1711C74.5757 71.1711 70.1046 70.2692 70.1046 68.5975C70.1046 66.9259 74.5757 66.0239 78.7826 66.0239C82.9895 66.0239 87.4606 66.9259 87.4606 68.5975C87.4606 70.2692 82.9895 71.1711 78.7826 71.1711ZM78.7826 66.5277C73.9664 66.5277 70.6102 67.6186 70.6102 68.5975C70.6102 69.5765 73.9664 70.6673 78.7826 70.6673C83.5987 70.6673 86.955 69.5765 86.955 68.5975C86.955 67.6186 83.5987 66.5277 78.7826 66.5277Z" fill="#3F3D56"/>
<path d="M85.18 124.114C91.0451 124.114 95.7997 119.376 95.7997 113.532C95.7997 107.687 91.0451 102.949 85.18 102.949C79.3149 102.949 74.5603 107.687 74.5603 113.532C74.5603 119.376 79.3149 124.114 85.18 124.114Z" fill="#2F2E41"/>
<path d="M81.1417 120.485L75.9732 123.064L77.4178 125.939L82.5863 123.359L81.1417 120.485Z" fill="#2F2E41"/>
<path d="M78.0992 125.647C78.4057 125.184 77.6493 124.148 76.4096 123.333C75.17 122.519 73.9166 122.234 73.6101 122.697C73.3036 123.161 74.06 124.196 75.2997 125.011C76.5393 125.825 77.7927 126.11 78.0992 125.647Z" fill="#2F2E41"/>
<path d="M89.2183 120.485L87.7737 123.359L92.9422 125.939L94.3868 123.064L89.2183 120.485Z" fill="#2F2E41"/>
<path d="M95.0603 125.011C96.3 124.196 97.0564 123.161 96.7499 122.697C96.4434 122.234 95.19 122.519 93.9504 123.333C92.7107 124.148 91.9543 125.184 92.2608 125.647C92.5673 126.11 93.8207 125.825 95.0603 125.011Z" fill="#2F2E41"/>
<path d="M84.4365 114.56C86.4411 114.56 88.0661 112.941 88.0661 110.943C88.0661 108.946 86.4411 107.326 84.4365 107.326C82.432 107.326 80.807 108.946 80.807 110.943C80.807 112.941 82.432 114.56 84.4365 114.56Z" fill="white"/>
<path d="M85.3194 110.25C85.7899 109.781 85.7872 109.018 85.3134 108.546C84.8395 108.074 84.074 108.071 83.6035 108.54C83.133 109.009 83.1357 109.771 83.6095 110.244C84.0834 110.716 84.8489 110.719 85.3194 110.25Z" fill="#3F3D56"/>
<path d="M93.5575 102.018C93.7172 98.1005 90.3288 94.782 85.9892 94.6064C81.6496 94.4307 78.0022 97.4644 77.8425 101.382C77.6828 105.3 80.6994 106.19 85.0389 106.366C89.3785 106.542 93.3978 105.936 93.5575 102.018Z" fill="#364D9D"/>
<path d="M99.679 119.073C100.377 118.476 99.3952 116.194 97.4851 113.976C95.5749 111.759 93.4601 110.446 92.7616 111.043C92.063 111.641 93.0453 113.923 94.9555 116.14C96.8656 118.358 98.9804 119.671 99.679 119.073Z" fill="#2F2E41"/>
<path d="M75.4342 116.14C77.3444 113.923 78.3267 111.641 77.6281 111.043C76.9296 110.446 74.8148 111.759 72.9046 113.976C70.9945 116.194 70.0122 118.476 70.7107 119.073C71.4093 119.671 73.5241 118.358 75.4342 116.14Z" fill="#2F2E41"/>
<path d="M88.0967 117.702C88.2116 118.331 88.071 118.98 87.7059 119.506C87.3407 120.032 86.7809 120.392 86.1495 120.506C85.5181 120.621 84.867 120.481 84.3393 120.117C83.8115 119.753 83.4505 119.195 83.3356 118.566L83.3347 118.561C83.0967 117.251 84.1134 116.787 85.4284 116.55C86.7433 116.313 87.8587 116.392 88.0967 117.702Z" fill="white"/>
<path d="M67.2385 124.789C67.1044 124.789 66.9758 124.736 66.881 124.641C66.7862 124.547 66.7329 124.419 66.7329 124.285V94.5609C66.7329 94.4273 66.7862 94.2992 66.881 94.2047C66.9758 94.1102 67.1044 94.0571 67.2385 94.0571C67.3726 94.0571 67.5012 94.1102 67.596 94.2047C67.6908 94.2992 67.744 94.4273 67.744 94.5609V124.285C67.744 124.419 67.6908 124.547 67.596 124.641C67.5012 124.736 67.3726 124.789 67.2385 124.789Z" fill="#CCCCCC"/>
<path d="M59.6552 151.49C59.5211 151.49 59.3925 151.437 59.2977 151.343C59.2029 151.248 59.1497 151.12 59.1497 150.986V129.323C59.1497 129.19 59.2029 129.061 59.2977 128.967C59.3925 128.872 59.5211 128.819 59.6552 128.819C59.7893 128.819 59.9179 128.872 60.0127 128.967C60.1075 129.061 60.1608 129.19 60.1608 129.323V150.986C60.1608 151.12 60.1075 151.248 60.0127 151.343C59.9179 151.437 59.7893 151.49 59.6552 151.49Z" fill="#CCCCCC"/>
<path d="M79.119 133.605C78.9849 133.605 78.8563 133.552 78.7615 133.458C78.6667 133.363 78.6134 133.235 78.6134 133.101V103.377C78.6134 103.244 78.6667 103.116 78.7615 103.021C78.8563 102.927 78.9849 102.874 79.119 102.874C79.2531 102.874 79.3816 102.927 79.4765 103.021C79.5713 103.116 79.6245 103.244 79.6245 103.377V133.101C79.6245 133.235 79.5713 133.363 79.4765 133.458C79.3817 133.552 79.2531 133.605 79.119 133.605Z" fill="#CCCCCC"/>
<path d="M71.7885 155.017C71.6544 155.017 71.5258 154.964 71.431 154.869C71.3362 154.775 71.2829 154.646 71.2829 154.513V142.422C71.2829 142.288 71.3362 142.16 71.431 142.066C71.5258 141.971 71.6544 141.918 71.7885 141.918C71.9225 141.918 72.0511 141.971 72.1459 142.066C72.2407 142.16 72.294 142.288 72.294 142.422V154.513C72.294 154.646 72.2407 154.775 72.1459 154.869C72.0511 154.964 71.9225 155.017 71.7885 155.017Z" fill="#CCCCCC"/>
<path d="M82.1523 93.0494C82.0182 93.0494 81.8896 92.9963 81.7948 92.9018C81.7 92.8073 81.6467 92.6792 81.6467 92.5456V80.4545C81.6467 80.3209 81.7 80.1927 81.7948 80.0982C81.8896 80.0038 82.0182 79.9507 82.1523 79.9507C82.2864 79.9507 82.4149 80.0038 82.5098 80.0982C82.6046 80.1927 82.6578 80.3209 82.6578 80.4545V92.5456C82.6578 92.6792 82.6046 92.8073 82.5098 92.9018C82.4149 92.9963 82.2864 93.0494 82.1523 93.0494Z" fill="#CCCCCC"/>
<path d="M56.8747 98.3394C56.7406 98.3394 56.612 98.2863 56.5172 98.1919C56.4224 98.0974 56.3691 97.9692 56.3691 97.8356V85.7445C56.3691 85.6109 56.4224 85.4828 56.5172 85.3883C56.612 85.2938 56.7406 85.2407 56.8747 85.2407C57.0087 85.2407 57.1373 85.2938 57.2321 85.3883C57.327 85.4828 57.3802 85.6109 57.3802 85.7445V97.8356C57.3802 97.9692 57.3269 98.0974 57.2321 98.1919C57.1373 98.2863 57.0087 98.3394 56.8747 98.3394Z" fill="#CCCCCC"/>
<path d="M100.858 99.5992C100.724 99.5992 100.595 99.5461 100.5 99.4516C100.405 99.3571 100.352 99.229 100.352 99.0954V87.0043C100.352 86.8707 100.405 86.7425 100.5 86.648C100.595 86.5536 100.724 86.5005 100.858 86.5005C100.992 86.5005 101.12 86.5536 101.215 86.648C101.31 86.7425 101.363 86.8707 101.363 87.0043V99.0954C101.363 99.229 101.31 99.3571 101.215 99.4516C101.12 99.5461 100.992 99.5992 100.858 99.5992Z" fill="#CCCCCC"/>
<path d="M99.8466 137.384C99.7125 137.384 99.584 137.331 99.4891 137.236C99.3943 137.142 99.3411 137.014 99.3411 136.88V122.27C99.3411 122.136 99.3943 122.008 99.4891 121.914C99.5839 121.819 99.7125 121.766 99.8466 121.766C99.9807 121.766 100.109 121.819 100.204 121.914C100.299 122.008 100.352 122.136 100.352 122.27V136.88C100.352 137.014 100.299 137.142 100.204 137.236C100.109 137.331 99.9807 137.384 99.8466 137.384Z" fill="#CCCCCC"/>
<path d="M89.7356 150.23C89.6015 150.23 89.4729 150.177 89.3781 150.083C89.2833 149.988 89.23 149.86 89.23 149.727V128.063C89.23 127.93 89.2833 127.802 89.3781 127.707C89.4729 127.613 89.6015 127.56 89.7356 127.56C89.8696 127.56 89.9982 127.613 90.093 127.707C90.1878 127.802 90.2411 127.93 90.2411 128.063V149.727C90.2411 149.86 90.1878 149.988 90.093 150.083C89.9982 150.177 89.8696 150.23 89.7356 150.23Z" fill="#CCCCCC"/>
<path d="M91.7578 113.201C91.6237 113.201 91.4951 113.148 91.4003 113.054C91.3055 112.959 91.2522 112.831 91.2522 112.698V82.9735C91.2522 82.8399 91.3055 82.7118 91.4003 82.6173C91.4951 82.5228 91.6237 82.4697 91.7578 82.4697C91.8919 82.4697 92.0204 82.5228 92.1153 82.6173C92.2101 82.7118 92.2633 82.8399 92.2633 82.9735V112.698C92.2633 112.831 92.2101 112.959 92.1153 113.054C92.0204 113.148 91.8919 113.201 91.7578 113.201Z" fill="#CCCCCC"/>
<path d="M153.737 176.452C154.46 175.849 153.483 173.497 151.553 171.2C149.623 168.903 147.472 167.531 146.748 168.134C146.025 168.738 147.002 171.09 148.932 173.387C150.862 175.683 153.013 177.056 153.737 176.452Z" fill="#2F2E41"/>
<path d="M148.991 173.84C150.893 168.156 147.81 162.012 142.106 160.118C136.402 158.223 130.237 161.295 128.336 166.979C126.434 172.663 129.517 178.807 135.221 180.701C140.925 182.596 147.09 179.524 148.991 173.84Z" fill="#2F2E41"/>
<path d="M143.271 178.924H139.964V184.829H143.271V178.924Z" fill="#2F2E41"/>
<path d="M136.657 178.924H133.35V184.829H136.657V178.924Z" fill="#2F2E41"/>
<path d="M140.515 185.927C142.037 185.927 143.271 185.466 143.271 184.897C143.271 184.329 142.037 183.867 140.515 183.867C138.993 183.867 137.759 184.329 137.759 184.897C137.759 185.466 138.993 185.927 140.515 185.927Z" fill="#2F2E41"/>
<path d="M133.901 185.79C135.423 185.79 136.657 185.329 136.657 184.76C136.657 184.191 135.423 183.73 133.901 183.73C132.379 183.73 131.145 184.191 131.145 184.76C131.145 185.329 132.379 185.79 133.901 185.79Z" fill="#2F2E41"/>
<path d="M135.245 156.773C136.217 152.872 140.508 150.576 144.829 151.645C149.15 152.714 151.865 156.744 150.893 160.645C149.921 164.546 146.696 164.559 142.375 163.489C138.054 162.42 134.273 160.674 135.245 156.773Z" fill="#CCCCCC"/>
<path d="M131.32 167.7C131.724 166.85 129.85 165.121 127.134 163.837C124.418 162.553 121.888 162.202 121.484 163.051C121.079 163.901 122.953 165.631 125.67 166.914C128.386 168.198 130.915 168.55 131.32 167.7Z" fill="#2F2E41"/>
<path d="M137.036 171.737C139.041 171.737 140.666 170.118 140.666 168.121C140.666 166.123 139.041 164.504 137.036 164.504C135.031 164.504 133.406 166.123 133.406 168.121C133.406 170.118 135.031 171.737 137.036 171.737Z" fill="white"/>
<path d="M135.544 168.03C136.212 168.03 136.754 167.49 136.754 166.824C136.754 166.158 136.212 165.618 135.544 165.618C134.876 165.618 134.334 166.158 134.334 166.824C134.334 167.49 134.876 168.03 135.544 168.03Z" fill="#3F3D56"/>
<path d="M137.005 177.184C137.842 177.184 138.521 176.507 138.521 175.672C138.521 174.838 137.842 174.161 137.005 174.161C136.167 174.161 135.488 174.838 135.488 175.672C135.488 176.507 136.167 177.184 137.005 177.184Z" fill="white"/>
<path d="M169.747 186H110.092C110.025 186 109.961 185.973 109.913 185.926C109.866 185.879 109.839 185.815 109.839 185.748C109.839 185.681 109.866 185.617 109.913 185.57C109.961 185.523 110.025 185.496 110.092 185.496H169.747C169.814 185.496 169.879 185.523 169.926 185.57C169.973 185.617 170 185.681 170 185.748C170 185.815 169.973 185.879 169.926 185.926C169.879 185.973 169.814 186 169.747 186Z" fill="#3F3D56"/>
</g>
<defs>
<clipPath id="clip0_4753_1043">
<rect width="170" height="186" fill="white"/>
</clipPath>
</defs>
</svg>
