<svg width="15" height="15" viewBox="0 0 98 98" fill="none" xmlns="http://www.w3.org/2000/svg">
<path d="M48.7537 1.40517e-07C40.2872 -0.000642604 31.9664 2.20372 24.6107 6.39606C17.255 10.5884 11.1179 16.6242 6.80371 23.9091C2.48952 31.194 0.146971 39.4769 0.00669328 47.9423C-0.133584 56.4077 1.93325 64.7636 6.0037 72.1875L2.01933 86.25C1.64764 87.5314 1.62674 88.8891 1.95883 90.1814C2.29091 91.4736 2.9638 92.653 3.90725 93.5965C4.85069 94.5399 6.0301 95.2128 7.32235 95.5449C8.61459 95.877 9.97229 95.8561 11.2537 95.4844L25.3162 91.5C31.8332 95.0719 39.0805 97.1065 46.5043 97.4484C53.928 97.7903 61.3317 96.4304 68.1493 93.4726C74.967 90.5148 81.0182 86.0375 85.8404 80.3828C90.6627 74.7282 94.1282 68.0459 95.9723 60.8467C97.8164 53.6475 97.9901 46.1219 96.4802 38.8453C94.9703 31.5687 91.8167 24.7336 87.2605 18.8624C82.7044 12.9913 76.8662 8.23952 70.1923 4.97032C63.5183 1.70112 56.1853 0.00102941 48.7537 1.40517e-07V1.40517e-07ZM60.0506 78.75H60.0037C49.0592 78.7376 38.5672 74.3812 30.8327 66.6379C23.0982 58.8945 18.7537 48.3976 18.7537 37.4531C18.7661 32.9857 20.5495 28.7055 23.7128 25.551C26.8762 22.3964 31.1613 20.625 35.6287 20.625C36.8567 20.6277 38.0623 20.9541 39.1239 21.5713C40.1856 22.1885 41.0657 23.0748 41.6756 24.1406L47.16 33.75C47.8223 34.9008 48.163 36.2086 48.1465 37.5363C48.13 38.864 47.7569 40.1628 47.0662 41.2969L43.7381 46.875C45.4115 49.7206 47.7831 52.0922 50.6287 53.7656L56.2068 50.4375C57.3409 49.7468 58.6397 49.3737 59.9674 49.3572C61.2951 49.3407 62.6029 49.6814 63.7537 50.3437L73.3631 55.8281C74.4289 56.438 75.3152 57.3181 75.9324 58.3798C76.5496 59.4414 76.876 60.647 76.8787 61.875C76.8787 66.3424 75.1073 70.6275 71.9527 73.7909C68.7982 76.9542 64.518 78.7376 60.0506 78.75V78.75Z" fill="#EDECEE"/>
</svg>
