<svg width="354" height="296" viewBox="0 0 354 296" fill="none" xmlns="http://www.w3.org/2000/svg">
<g clip-path="url(#clip0_4741_1523)">
<path d="M166.275 296C243.487 296 306.08 292.799 306.08 288.85C306.08 284.902 243.487 281.7 166.275 281.7C89.0623 281.7 26.4692 284.902 26.4692 288.85C26.4692 292.799 89.0623 296 166.275 296Z" fill="#F2F2F2"/>
<path d="M247.955 68.6967H246.367V25.184C246.367 18.5048 243.714 12.0991 238.992 7.37623C234.269 2.65332 227.864 7.37434e-06 221.185 0H129.006C122.328 -1.26416e-05 115.923 2.65327 111.2 7.37617C106.478 12.0991 103.825 18.5047 103.825 25.1839V263.898C103.825 270.577 106.478 276.983 111.2 281.706C115.923 286.429 122.328 289.082 129.006 289.082H221.185C227.864 289.082 234.269 286.429 238.991 281.706C243.714 276.983 246.367 270.577 246.367 263.898V99.6698H247.955L247.955 68.6967Z" fill="#3F3D56"/>
<path d="M241.007 25.3597V263.723C241.007 268.711 239.026 273.495 235.499 277.022C231.972 280.549 227.189 282.53 222.201 282.531H129.58C124.592 282.53 119.809 280.549 116.282 277.022C112.755 273.495 110.774 268.711 110.773 263.723V25.3597C110.774 20.3716 112.755 15.5877 116.282 12.0606C119.809 8.53343 124.592 6.55185 129.58 6.55176H140.816C140.264 7.90862 140.053 9.38038 140.203 10.8376C140.354 12.2948 140.859 13.6928 141.677 14.9086C142.494 16.1244 143.597 17.1207 144.89 17.81C146.182 18.4992 147.624 18.8603 149.089 18.8614H201.897C203.362 18.8603 204.804 18.4992 206.097 17.8099C207.389 17.1207 208.492 16.1243 209.31 14.9085C210.127 13.6928 210.633 12.2948 210.783 10.8376C210.933 9.38038 210.723 7.90862 210.17 6.55176H222.201C227.189 6.55185 231.972 8.53343 235.499 12.0606C239.026 15.5878 241.007 20.3716 241.007 25.3597Z" fill="white"/>
<path d="M211.169 128.141C210.553 128.462 209.927 128.767 209.29 129.054C208.71 129.316 208.121 129.563 207.523 129.793C207.304 129.877 207.082 129.96 206.86 130.043C205.101 130.681 203.295 131.179 201.458 131.533C200.549 131.712 199.627 131.852 198.694 131.954C197.923 132.041 197.145 132.104 196.358 132.141C195.798 132.168 195.238 132.18 194.674 132.18C192.441 132.181 190.212 131.972 188.018 131.557C187.446 131.453 186.886 131.33 186.326 131.195C183.617 130.546 180.994 129.578 178.513 128.311C178.291 128.2 178.068 128.081 177.846 127.966C177.516 127.791 177.195 127.608 176.873 127.418C177.028 127.203 177.195 126.993 177.365 126.786C179.224 124.483 181.547 122.597 184.183 121.252C186.819 119.906 189.709 119.131 192.665 118.978C195.62 118.824 198.575 119.295 201.336 120.36C204.097 121.425 206.603 123.059 208.691 125.158C209.415 125.885 210.087 126.663 210.7 127.485C210.863 127.7 211.018 127.918 211.169 128.141Z" fill="#647AC7"/>
<path d="M195.467 110.692C205.099 110.692 212.907 102.883 212.907 93.2508C212.907 83.6181 205.099 75.8093 195.467 75.8093C185.835 75.8093 178.027 83.6181 178.027 93.2508C178.027 102.883 185.835 110.692 195.467 110.692Z" fill="#2F2E41"/>
<path d="M200.106 110.717C206.396 107.278 208.707 99.3907 205.269 93.0999C201.83 86.8091 193.944 84.4972 187.654 87.936C181.363 91.3749 179.052 99.2623 182.49 105.553C185.929 111.844 193.815 114.156 200.106 110.717Z" fill="#A0616A"/>
<path d="M207.519 91.1613C204.552 93.2059 201.032 94.294 197.43 94.2796C198.715 95.1707 200.177 95.7726 201.717 96.0438C196.928 97.0713 191.978 97.0991 187.177 96.1255C186.11 95.9544 185.08 95.6007 184.133 95.08C183.661 94.8164 183.25 94.4564 182.926 94.0234C182.602 93.5905 182.373 93.0942 182.254 92.567C181.935 90.7443 183.355 89.0884 184.831 87.9724C187.09 86.2898 189.696 85.1306 192.458 84.5785C195.221 84.0264 198.071 84.0954 200.804 84.7803C202.588 85.2415 204.376 86.0209 205.535 87.4539C206.694 88.8869 207.037 91.0963 205.933 92.5719L207.519 91.1613Z" fill="#2F2E41"/>
<path d="M194.674 60.6821C186.879 60.681 179.296 63.229 173.083 67.9377C166.87 72.6465 162.366 79.2578 160.259 86.764C158.152 94.2701 158.556 102.26 161.411 109.514C164.265 116.769 169.414 122.892 176.071 126.949L176.301 127.084C176.492 127.199 176.682 127.31 176.873 127.418C177.195 127.608 177.516 127.791 177.846 127.966C178.068 128.081 178.291 128.2 178.513 128.311C180.994 129.578 183.617 130.546 186.326 131.195C186.886 131.33 187.446 131.453 188.018 131.557C190.212 131.972 192.441 132.181 194.674 132.18C195.238 132.18 195.798 132.168 196.358 132.141C197.145 132.105 197.923 132.043 198.694 131.954C199.627 131.851 200.549 131.71 201.458 131.533C203.295 131.179 205.101 130.681 206.86 130.043C207.082 129.96 207.304 129.876 207.523 129.793C208.123 129.563 208.712 129.316 209.29 129.054C209.926 128.768 210.552 128.464 211.169 128.141C217.352 124.902 222.462 119.939 225.88 113.853C225.896 113.821 225.916 113.789 225.932 113.758C227.755 110.485 229.049 106.944 229.765 103.267C230.769 98.0905 230.617 92.7557 229.319 87.6447C228.021 82.5337 225.609 77.773 222.255 73.7035C218.902 69.634 214.69 66.3563 209.922 64.1052C205.154 61.854 199.947 60.6851 194.674 60.6821ZM225.281 113.293C225.249 113.348 225.221 113.404 225.189 113.456C221.84 119.452 216.801 124.331 210.7 127.485C210.092 127.803 209.474 128.101 208.845 128.379C208.325 128.613 207.793 128.836 207.257 129.042C207.03 129.13 206.8 129.217 206.57 129.296C205.05 129.851 203.493 130.298 201.911 130.631C200.737 130.881 199.55 131.068 198.356 131.191C197.621 131.271 196.875 131.326 196.124 131.354C195.643 131.374 195.159 131.386 194.674 131.386C192.513 131.388 190.356 131.188 188.232 130.786C186.94 130.548 185.663 130.235 184.407 129.849C182.494 129.258 180.635 128.504 178.851 127.596C178.644 127.489 178.438 127.382 178.235 127.271C177.945 127.116 177.651 126.957 177.365 126.786C177.151 126.667 176.936 126.54 176.726 126.413C176.603 126.341 176.48 126.266 176.356 126.19C170.52 122.606 165.864 117.386 162.966 111.179C160.069 104.972 159.057 98.051 160.057 91.2743C161.057 84.4977 164.024 78.1637 168.591 73.0582C173.157 67.9528 179.122 64.3005 185.745 62.5545C192.369 60.8085 199.359 61.0456 205.848 63.2364C212.338 65.4272 218.042 69.4753 222.252 74.8785C226.462 80.2817 228.993 86.8022 229.532 93.631C230.07 100.46 228.592 107.297 225.281 113.293Z" fill="#3F3D56"/>
<path d="M186.635 76.05C186.448 74.0767 184.03 72.8618 182.14 73.4579C180.25 74.0539 179.009 75.9575 178.634 77.9039C178.453 78.7236 178.436 79.5709 178.584 80.3972C178.731 81.2235 179.041 82.0125 179.494 82.7191C180.449 84.0943 182.205 84.9526 183.843 84.6034C185.712 84.2049 187.007 82.3792 187.378 80.5038C187.749 78.6284 187.381 76.6948 187.013 74.8188L186.635 76.05Z" fill="#2F2E41"/>
<path d="M213.239 78.8691C213.051 76.8958 210.634 75.6809 208.744 76.277C206.854 76.873 205.613 78.7766 205.237 80.723C205.057 81.5427 205.04 82.39 205.188 83.2163C205.335 84.0426 205.644 84.8316 206.097 85.5381C207.053 86.9134 208.809 87.7717 210.446 87.4225C212.316 87.024 213.611 85.1983 213.982 83.3229C214.352 81.4475 213.984 79.5139 213.617 77.6379L213.239 78.8691Z" fill="#2F2E41"/>
<path d="M132.888 110.718C132.641 110.718 132.396 110.666 132.17 110.566C131.944 110.466 131.741 110.32 131.575 110.137L111.866 88.6343C111.643 88.3908 111.371 88.1964 111.068 88.0632C110.766 87.9301 110.439 87.8612 110.108 87.8608H5.96131C4.38082 87.859 2.86556 87.2303 1.74799 86.1126C0.630407 84.995 0.00177449 83.4796 0 81.8989V44.3376C0.00177344 42.757 0.630407 41.2416 1.74799 40.1239C2.86556 39.0062 4.38082 38.3775 5.96131 38.3757H140.892C142.472 38.3775 143.987 39.0062 145.105 40.1239C146.223 41.2416 146.851 42.757 146.853 44.3376V81.8989C146.851 83.4796 146.223 84.995 145.105 86.1127C143.987 87.2303 142.472 87.859 140.892 87.8608H137.066C136.434 87.8615 135.828 88.1131 135.381 88.5602C134.934 89.0074 134.682 89.6136 134.681 90.246V108.928C134.683 109.289 134.575 109.641 134.371 109.939C134.168 110.237 133.878 110.465 133.541 110.595C133.333 110.676 133.112 110.718 132.888 110.718Z" fill="white"/>
<path d="M132.888 110.718C132.641 110.718 132.396 110.666 132.17 110.566C131.944 110.466 131.741 110.32 131.575 110.137L111.866 88.6343C111.643 88.3908 111.371 88.1964 111.068 88.0632C110.766 87.9301 110.439 87.8612 110.108 87.8608H5.96131C4.38082 87.859 2.86556 87.2303 1.74799 86.1126C0.630407 84.995 0.00177449 83.4796 0 81.8989V44.3376C0.00177344 42.757 0.630407 41.2416 1.74799 40.1239C2.86556 39.0062 4.38082 38.3775 5.96131 38.3757H140.892C142.472 38.3775 143.987 39.0062 145.105 40.1239C146.223 41.2416 146.851 42.757 146.853 44.3376V81.8989C146.851 83.4796 146.223 84.995 145.105 86.1127C143.987 87.2303 142.472 87.859 140.892 87.8608H137.066C136.434 87.8615 135.828 88.1131 135.381 88.5602C134.934 89.0074 134.682 89.6136 134.681 90.246V108.928C134.683 109.289 134.575 109.641 134.371 109.939C134.168 110.237 133.878 110.465 133.541 110.595C133.333 110.676 133.112 110.718 132.888 110.718ZM5.96131 39.1702C4.59142 39.1717 3.27808 39.7166 2.30942 40.6854C1.34076 41.6541 0.795896 42.9676 0.79435 44.3376V81.8989C0.795898 83.269 1.34077 84.5824 2.30943 85.5512C3.27809 86.5199 4.59142 87.0648 5.96131 87.0664H110.108C110.549 87.0669 110.985 87.1587 111.388 87.3362C111.792 87.5137 112.154 87.7729 112.452 88.0974L132.16 109.6C132.296 109.747 132.473 109.851 132.668 109.896C132.863 109.942 133.067 109.927 133.253 109.854C133.44 109.782 133.6 109.655 133.713 109.489C133.827 109.324 133.887 109.128 133.887 108.928V90.246C133.888 89.403 134.223 88.5948 134.819 87.9987C135.415 87.4026 136.223 87.0673 137.066 87.0664H140.892C142.262 87.0648 143.575 86.5199 144.544 85.5512C145.512 84.5824 146.057 83.269 146.059 81.8989V44.3376C146.057 42.9676 145.512 41.6541 144.544 40.6854C143.575 39.7166 142.262 39.1717 140.892 39.1702H5.96131Z" fill="#3F3D56"/>
<path d="M14.6224 54.9452C17.5033 54.9452 19.8388 52.6095 19.8388 49.7283C19.8388 46.8471 17.5033 44.5115 14.6224 44.5115C11.7415 44.5115 9.40601 46.8471 9.40601 49.7283C9.40601 52.6095 11.7415 54.9452 14.6224 54.9452Z" fill="#647AC7"/>
<path d="M134.806 78.5949H12.0471C11.6815 78.5954 11.3194 78.5237 10.9814 78.3841C10.6435 78.2445 10.3364 78.0396 10.0777 77.7812C9.81906 77.5228 9.61383 77.2159 9.47381 76.8781C9.33379 76.5403 9.26172 76.1783 9.26172 75.8126C9.26172 75.4469 9.33379 75.0849 9.47381 74.7471C9.61383 74.4093 9.81906 74.1024 10.0777 73.844C10.3364 73.5856 10.6435 73.3807 10.9814 73.2411C11.3194 73.1015 11.6815 73.0298 12.0471 73.0303H134.806C135.543 73.0312 136.25 73.3247 136.771 73.8464C137.292 74.3681 137.585 75.0753 137.585 75.8126C137.585 76.5499 137.292 77.2571 136.771 77.7788C136.25 78.3005 135.543 78.594 134.806 78.5949Z" fill="#E6E6E6"/>
<path d="M94.8137 66.77H12.0471C11.6815 66.7704 11.3194 66.6988 10.9814 66.5591C10.6435 66.4195 10.3364 66.2146 10.0777 65.9562C9.81906 65.6978 9.61383 65.391 9.47381 65.0532C9.33379 64.7154 9.26172 64.3533 9.26172 63.9877C9.26172 63.622 9.33379 63.2599 9.47381 62.9221C9.61383 62.5844 9.81906 62.2775 10.0777 62.0191C10.3364 61.7607 10.6435 61.5558 10.9814 61.4162C11.3194 61.2765 11.6815 61.2049 12.0471 61.2053H94.8137C95.5515 61.2053 96.2591 61.4985 96.7809 62.0203C97.3026 62.542 97.5957 63.2497 97.5957 63.9877C97.5957 64.7256 97.3026 65.4333 96.7809 65.9551C96.2591 66.4768 95.5515 66.77 94.8137 66.77Z" fill="#E6E6E6"/>
<path d="M220.458 238.1C220.122 237.971 219.832 237.742 219.629 237.444C219.425 237.147 219.317 236.794 219.318 236.433V217.751C219.318 217.119 219.066 216.513 218.619 216.065C218.172 215.618 217.566 215.367 216.934 215.366H213.108C211.528 215.364 210.013 214.735 208.895 213.618C207.777 212.5 207.149 210.985 207.147 209.404V171.843C207.149 170.262 207.777 168.747 208.895 167.629C210.013 166.511 211.528 165.883 213.108 165.881H348.039C349.619 165.883 351.134 166.511 352.252 167.629C353.37 168.747 353.998 170.262 354 171.843V209.404C353.998 210.985 353.37 212.5 352.252 213.618C351.134 214.735 349.619 215.364 348.039 215.366H243.892C243.561 215.366 243.234 215.435 242.931 215.568C242.629 215.702 242.357 215.896 242.134 216.139L222.425 237.642C222.259 237.825 222.056 237.971 221.83 238.071C221.603 238.171 221.359 238.223 221.112 238.223C220.888 238.223 220.667 238.181 220.458 238.1Z" fill="white"/>
<path d="M220.458 238.1C220.122 237.971 219.832 237.742 219.629 237.444C219.425 237.147 219.317 236.794 219.318 236.433V217.751C219.318 217.119 219.066 216.513 218.619 216.065C218.172 215.618 217.566 215.367 216.934 215.366H213.108C211.528 215.364 210.013 214.735 208.895 213.618C207.777 212.5 207.149 210.985 207.147 209.404V171.843C207.149 170.262 207.777 168.747 208.895 167.629C210.013 166.511 211.528 165.883 213.108 165.881H348.039C349.619 165.883 351.134 166.511 352.252 167.629C353.37 168.747 353.998 170.262 354 171.843V209.404C353.998 210.985 353.37 212.5 352.252 213.618C351.134 214.735 349.619 215.364 348.039 215.366H243.892C243.561 215.366 243.234 215.435 242.931 215.568C242.629 215.702 242.357 215.896 242.134 216.139L222.425 237.642C222.259 237.825 222.056 237.971 221.83 238.071C221.603 238.171 221.359 238.223 221.112 238.223C220.888 238.223 220.667 238.181 220.458 238.1ZM213.108 166.675C211.738 166.677 210.425 167.222 209.456 168.191C208.488 169.159 207.943 170.473 207.941 171.843V209.404C207.943 210.774 208.488 212.088 209.456 213.056C210.425 214.025 211.738 214.57 213.108 214.571H216.934C217.777 214.572 218.585 214.908 219.181 215.504C219.777 216.1 220.112 216.908 220.113 217.751V236.433C220.113 236.634 220.173 236.829 220.286 236.994C220.399 237.16 220.56 237.287 220.746 237.36C220.933 237.432 221.137 237.447 221.332 237.401C221.527 237.356 221.704 237.253 221.839 237.105L241.548 215.603C241.846 215.278 242.208 215.019 242.612 214.841C243.015 214.664 243.451 214.572 243.892 214.571H348.039C349.408 214.57 350.722 214.025 351.69 213.056C352.659 212.088 353.204 210.774 353.206 209.404V171.843C353.204 170.473 352.659 169.159 351.69 168.191C350.722 167.222 349.408 166.677 348.039 166.675H213.108Z" fill="#3F3D56"/>
<path d="M178.402 249.731C172.869 253.275 166.458 255.207 159.888 255.311C153.319 255.416 146.85 253.689 141.207 250.323C142.199 248.475 143.457 246.782 144.94 245.298C147.228 242.999 150.013 241.255 153.08 240.2C156.148 239.145 159.416 238.807 162.634 239.213C165.853 239.618 168.935 240.756 171.645 242.539C174.355 244.321 176.62 246.702 178.267 249.497C178.311 249.572 178.358 249.652 178.402 249.731Z" fill="#647AC7"/>
<path d="M158.251 230.736C167.947 230.736 175.807 222.876 175.807 213.179C175.807 203.482 167.947 195.622 158.251 195.622C148.556 195.622 140.696 203.482 140.696 213.179C140.696 222.876 148.556 230.736 158.251 230.736Z" fill="#2F2E41"/>
<path d="M171.314 225.563C174.776 219.23 172.449 211.291 166.117 207.829C159.785 204.367 151.846 206.694 148.384 213.027C144.923 219.36 147.25 227.299 153.582 230.761C159.914 234.223 167.853 231.895 171.314 225.563Z" fill="#FFB8B8"/>
<path d="M146.12 211.076C149.106 213.134 152.65 214.229 156.276 214.215C154.982 215.112 153.51 215.718 151.96 215.991C156.781 217.025 161.764 217.053 166.597 216.073C167.671 215.901 168.708 215.545 169.661 215.02C170.136 214.755 170.55 214.393 170.876 213.957C171.202 213.521 171.432 213.021 171.552 212.491C171.873 210.656 170.444 208.989 168.958 207.866C166.684 206.172 164.061 205.005 161.28 204.449C158.499 203.893 155.63 203.963 152.879 204.652C151.083 205.117 149.284 205.901 148.117 207.344C146.95 208.786 146.605 211.01 147.716 212.496L146.12 211.076Z" fill="#2F2E41"/>
<path d="M159.326 255.713C150.728 255.711 142.419 252.608 135.924 246.974C129.428 241.34 125.182 233.553 123.963 225.041C122.744 216.53 124.635 207.864 129.288 200.633C133.942 193.403 141.046 188.093 149.297 185.677C157.549 183.261 166.394 183.902 174.212 187.481C182.03 191.06 188.295 197.338 191.858 205.164C195.421 212.989 196.044 221.837 193.612 230.085C191.18 238.332 185.856 245.426 178.617 250.065C172.86 253.757 166.164 255.717 159.326 255.713ZM159.326 185.01C152.412 185.009 145.653 187.059 139.905 190.9C134.156 194.741 129.675 200.2 127.029 206.588C124.383 212.976 123.691 220.005 125.039 226.787C126.388 233.568 129.717 239.797 134.606 244.686C139.494 249.576 145.723 252.905 152.504 254.254C159.285 255.603 166.313 254.91 172.7 252.264C179.088 249.618 184.547 245.136 188.388 239.387C192.228 233.638 194.278 226.879 194.277 219.964C194.267 210.697 190.581 201.812 184.028 195.259C177.476 188.706 168.592 185.02 159.326 185.01Z" fill="#3F3D56"/>
<path d="M223.934 182.053C226.815 182.053 229.15 179.717 229.15 176.836C229.15 173.955 226.815 171.619 223.934 171.619C221.053 171.619 218.717 173.955 218.717 176.836C218.717 179.717 221.053 182.053 223.934 182.053Z" fill="#647AC7"/>
<path d="M344.117 205.703H221.358C220.993 205.703 220.631 205.632 220.293 205.492C219.955 205.352 219.648 205.147 219.389 204.889C219.13 204.631 218.925 204.324 218.785 203.986C218.645 203.648 218.573 203.286 218.573 202.921C218.573 202.555 218.645 202.193 218.785 201.855C218.925 201.517 219.13 201.21 219.389 200.952C219.648 200.694 219.955 200.489 220.293 200.349C220.631 200.209 220.993 200.138 221.358 200.138H344.117C344.855 200.138 345.563 200.431 346.084 200.953C346.606 201.475 346.899 202.183 346.899 202.921C346.899 203.658 346.606 204.366 346.084 204.888C345.563 205.41 344.855 205.703 344.117 205.703Z" fill="#E6E6E6"/>
<path d="M304.125 193.878H221.358C220.993 193.878 220.631 193.807 220.293 193.667C219.955 193.527 219.648 193.323 219.389 193.064C219.13 192.806 218.925 192.499 218.785 192.161C218.645 191.823 218.573 191.461 218.573 191.096C218.573 190.73 218.645 190.368 218.785 190.03C218.925 189.692 219.13 189.385 219.389 189.127C219.648 188.869 219.955 188.664 220.293 188.524C220.631 188.384 220.993 188.313 221.358 188.313H304.125C304.862 188.314 305.569 188.608 306.09 189.129C306.611 189.651 306.904 190.358 306.904 191.096C306.904 191.833 306.611 192.54 306.09 193.062C305.569 193.584 304.862 193.877 304.125 193.878Z" fill="#E6E6E6"/>
<path d="M220.29 241.656C225.665 241.656 230.023 241.172 230.023 240.576C230.023 239.979 225.665 239.495 220.29 239.495C214.915 239.495 210.558 239.979 210.558 240.576C210.558 241.172 214.915 241.656 220.29 241.656Z" fill="#F2F2F2"/>
<path d="M133.309 114.548C138.684 114.548 143.042 114.065 143.042 113.468C143.042 112.871 138.684 112.388 133.309 112.388C127.934 112.388 123.577 112.871 123.577 113.468C123.577 114.065 127.934 114.548 133.309 114.548Z" fill="#F2F2F2"/>
</g>
<defs>
<clipPath id="clip0_4741_1523">
<rect width="354" height="296" fill="white"/>
</clipPath>
</defs>
</svg>
