<svg width="375" height="291" viewBox="0 0 375 291" fill="none" xmlns="http://www.w3.org/2000/svg">
<circle cx="180.5" cy="147.509" r="140.5" fill="#D9D9D9"/>
<path opacity="0.3" d="M252.124 127.354L186.23 72.4597L250.245 129.553C250.369 129.761 250.541 129.938 250.747 130.067C250.953 130.196 251.186 130.274 251.428 130.295C251.67 130.316 251.914 130.278 252.138 130.186C252.363 130.094 252.562 129.95 252.72 129.765C252.878 129.581 252.989 129.361 253.045 129.125C253.101 128.888 253.1 128.642 253.042 128.406C252.984 128.171 252.87 127.952 252.711 127.769C252.551 127.586 252.35 127.444 252.124 127.354Z" fill="#F0F0F0"/>
<path d="M269.174 42.787C270.082 42.787 270.818 42.0513 270.818 41.1438C270.818 40.2362 270.082 39.5005 269.174 39.5005C268.267 39.5005 267.531 40.2362 267.531 41.1438C267.531 42.0513 268.267 42.787 269.174 42.787Z" fill="#647AC7"/>
<path d="M254.015 2.80784C254.545 2.80784 254.975 2.378 254.975 1.84777C254.975 1.31753 254.545 0.887695 254.015 0.887695C253.485 0.887695 253.055 1.31753 253.055 1.84777C253.055 2.378 253.485 2.80784 254.015 2.80784Z" fill="#F0F0F0"/>
<path d="M99.9999 190.999C100.53 190.999 100.96 190.569 100.96 190.039C100.96 189.509 100.53 189.079 99.9999 189.079C99.4696 189.079 99.0398 189.509 99.0398 190.039C99.0398 190.569 99.4696 190.999 99.9999 190.999Z" fill="#F0F0F0"/>
<path d="M259.465 96.7463C259.995 96.7463 260.425 96.3165 260.425 95.7863C260.425 95.256 259.995 94.8262 259.465 94.8262C258.935 94.8262 258.505 95.256 258.505 95.7863C258.505 96.3165 258.935 96.7463 259.465 96.7463Z" fill="#F0F0F0"/>
<path d="M135.576 105.813C136.483 105.813 137.219 105.078 137.219 104.17C137.219 103.263 136.483 102.527 135.576 102.527C134.668 102.527 133.933 103.263 133.933 104.17C133.933 105.078 134.668 105.813 135.576 105.813Z" fill="#647AC7"/>
<path d="M76.1006 141.223C80.3862 141.223 83.8604 137.749 83.8604 133.464C83.8604 129.178 80.3862 125.704 76.1006 125.704C71.815 125.704 68.3408 129.178 68.3408 133.464C68.3408 137.749 71.815 141.223 76.1006 141.223Z" fill="#647AC7"/>
<path d="M118.641 143.064C119.172 143.064 119.602 142.634 119.602 142.104C119.602 141.573 119.172 141.144 118.641 141.144C118.111 141.144 117.681 141.573 117.681 142.104C117.681 142.634 118.111 143.064 118.641 143.064Z" fill="#F0F0F0"/>
<path d="M144.828 1.92015C145.359 1.92015 145.789 1.49031 145.789 0.960073C145.789 0.42984 145.359 0 144.828 0C144.298 0 143.868 0.42984 143.868 0.960073C143.868 1.49031 144.298 1.92015 144.828 1.92015Z" fill="#F0F0F0"/>
<path d="M169.684 48.5239C170.214 48.5239 170.644 48.0941 170.644 47.5638C170.644 47.0336 170.214 46.6038 169.684 46.6038C169.153 46.6038 168.724 47.0336 168.724 47.5638C168.724 48.0941 169.153 48.5239 169.684 48.5239Z" fill="#F0F0F0"/>
<path d="M131.637 162.879C132.167 162.879 132.597 162.45 132.597 161.919C132.597 161.389 132.167 160.959 131.637 160.959C131.107 160.959 130.677 161.389 130.677 161.919C130.677 162.45 131.107 162.879 131.637 162.879Z" fill="#F0F0F0"/>
<path d="M243.931 169.093C244.461 169.093 244.891 168.663 244.891 168.133C244.891 167.603 244.461 167.173 243.931 167.173C243.4 167.173 242.97 167.603 242.97 168.133C242.97 168.663 243.4 169.093 243.931 169.093Z" fill="#F0F0F0"/>
<path d="M194.219 113.168C194.75 113.168 195.179 112.739 195.179 112.208C195.179 111.678 194.75 111.248 194.219 111.248C193.689 111.248 193.259 111.678 193.259 112.208C193.259 112.739 193.689 113.168 194.219 113.168Z" fill="#F0F0F0"/>
<path d="M219.519 48.3667C220.049 48.3667 220.479 47.9368 220.479 47.4066C220.479 46.8764 220.049 46.4465 219.519 46.4465C218.988 46.4465 218.559 46.8764 218.559 47.4066C218.559 47.9368 218.988 48.3667 219.519 48.3667Z" fill="#F0F0F0"/>
<path d="M265.515 80.4066C266.566 80.4066 267.419 79.5543 267.419 78.503C267.419 77.4516 266.566 76.5994 265.515 76.5994C264.464 76.5994 263.611 77.4516 263.611 78.503C263.611 79.5543 264.464 80.4066 265.515 80.4066Z" fill="#FF6584"/>
<path d="M188.285 17.3802C189.337 17.3802 190.189 16.5279 190.189 15.4766C190.189 14.4253 189.337 13.573 188.285 13.573C187.234 13.573 186.382 14.4253 186.382 15.4766C186.382 16.5279 187.234 17.3802 188.285 17.3802Z" fill="#FF6584"/>
<path d="M188.285 148.315C189.337 148.315 190.189 147.463 190.189 146.411C190.189 145.36 189.337 144.508 188.285 144.508C187.234 144.508 186.382 145.36 186.382 146.411C186.382 147.463 187.234 148.315 188.285 148.315Z" fill="#FF6584"/>
<path d="M318.971 185.149C313.24 185.149 306.959 184.933 300.127 184.499C264.791 182.255 219.019 174.454 171.245 162.532C123.47 150.611 79.3991 135.993 47.1512 121.373C31.4423 114.25 19.3859 107.508 11.3171 101.334C2.77431 94.7974 -0.962418 89.0997 0.210258 84.3999C2.49518 75.2438 22.7271 73.2407 39.2972 73.1726L39.3029 74.5041C16.5477 74.5976 3.12324 78.2266 1.50238 84.7224C-0.562339 92.9958 16.2766 105.912 47.7011 120.16C79.8781 134.748 123.868 149.338 171.567 161.241C219.266 173.143 264.953 180.931 300.212 183.17C334.645 185.358 355.579 181.867 357.643 173.593C359.357 166.724 348.057 156.605 325.824 145.099L326.436 143.916C342.591 152.277 361.343 164.268 358.935 173.916C357.762 178.615 351.787 181.889 341.175 183.646C335.125 184.647 327.695 185.149 318.971 185.149Z" fill="#647AC7"/>
<path d="M106.552 201.316C90.7512 201.317 76.062 200.775 62.9117 199.681C45.7231 198.25 32.1023 195.951 22.4282 192.847C12.1857 189.56 6.75181 185.449 6.27741 180.628C5.35288 171.237 23.7357 162.553 39.3198 156.921L39.7723 158.174C18.3714 165.907 6.94666 173.835 7.60245 180.498C8.4377 188.984 28.6373 195.492 63.022 198.353C98.2303 201.283 144.564 200.245 193.49 195.428C242.415 190.613 288.063 182.598 322.024 172.861C355.191 163.351 373.735 153.03 372.899 144.544C372.206 137.498 358.162 131.764 333.356 128.397L333.535 127.078C351.56 129.524 373.25 134.517 374.224 144.413C374.699 149.234 370.171 154.325 360.766 159.546C351.882 164.477 338.971 169.387 322.391 174.141C288.355 183.9 242.623 191.931 193.62 196.754C162.88 199.779 133.148 201.316 106.552 201.316Z" fill="#647AC7"/>
<path d="M8.63578 148.769C12.9214 148.769 16.3956 145.295 16.3956 141.009C16.3956 136.724 12.9214 133.25 8.63578 133.25C4.35016 133.25 0.875977 136.724 0.875977 141.009C0.875977 145.295 4.35016 148.769 8.63578 148.769Z" fill="#E6E6E6"/>
<path d="M315.75 58.5092C318.374 58.5092 320.5 56.3825 320.5 53.759C320.5 51.1355 318.374 49.0088 315.75 49.0088C313.127 49.0088 311 51.1355 311 53.759C311 56.3825 313.127 58.5092 315.75 58.5092Z" fill="#FF6584"/>
<path d="M34.3789 181.711C37.0023 181.711 39.1291 179.584 39.1291 176.961C39.1291 174.337 37.0023 172.211 34.3789 172.211C31.7554 172.211 29.6287 174.337 29.6287 176.961C29.6287 179.584 31.7554 181.711 34.3789 181.711Z" fill="#FF6584"/>
<path d="M251.587 74.4871H250.027V31.7461C250.027 28.4976 249.387 25.2808 248.144 22.2796C246.901 19.2783 245.079 16.5513 242.782 14.2542C240.485 11.9571 237.758 10.135 234.756 8.89181C231.755 7.64864 228.538 7.00879 225.29 7.00879H134.737C128.177 7.00877 121.885 9.615 117.245 14.2541C112.606 18.8933 110 25.1853 110 31.746V266.226C110 272.787 112.606 279.079 117.245 283.718C121.885 288.357 128.177 290.964 134.737 290.964H225.29C231.85 290.964 238.143 288.357 242.782 283.718C247.421 279.079 250.027 272.787 250.027 266.226V104.911H251.587L251.587 74.4871Z" fill="#3F3D56"/>
<path d="M226.288 13.4446H214.468C215.012 14.7773 215.219 16.2232 215.072 17.6549C214.925 19.0867 214.429 20.4603 213.626 21.6549C212.823 22.8495 211.739 23.8283 210.468 24.5051C209.198 25.1819 207.781 25.536 206.342 25.5361H154.466C153.026 25.536 151.609 25.1819 150.339 24.5051C149.069 23.8283 147.984 22.8495 147.182 21.6549C146.379 20.4603 145.882 19.0867 145.735 17.6549C145.588 16.2232 145.796 14.7773 146.339 13.4446H135.299C132.874 13.4446 130.471 13.9224 128.23 14.8508C125.989 15.7792 123.952 17.1399 122.237 18.8553C120.521 20.5708 119.161 22.6073 118.232 24.8486C117.304 27.0899 116.826 29.4921 116.826 31.9181V266.054C116.826 268.48 117.304 270.882 118.232 273.124C119.161 275.365 120.521 277.402 122.237 279.117C123.952 280.832 125.989 282.193 128.23 283.122C130.471 284.05 132.873 284.528 135.299 284.528H226.288C228.714 284.528 231.116 284.05 233.358 283.122C235.599 282.193 237.635 280.832 239.351 279.117C241.066 277.402 242.427 275.365 243.355 273.124C244.284 270.882 244.762 268.48 244.762 266.054V31.9181C244.762 29.4921 244.284 27.0899 243.355 24.8486C242.427 22.6073 241.066 20.5708 239.351 18.8554C237.635 17.1399 235.599 15.7792 233.358 14.8508C231.116 13.9224 228.714 13.4446 226.288 13.4446Z" fill="white"/>
<path d="M172.823 94.1143H126.393V98.4061H172.823V94.1143Z" fill="#E6E6E6"/>
<path d="M172.823 49.6353H126.393V87.4814H172.823V49.6353Z" fill="#647AC7"/>
<path d="M172.69 102.698H140.439V105.693H172.69V102.698Z" fill="#647AC7"/>
<path d="M232.128 94.1143H185.698V98.4061H232.128V94.1143Z" fill="#E6E6E6"/>
<path d="M232.128 49.6353H185.698V87.4814H232.128V49.6353Z" fill="#647AC7"/>
<path d="M231.995 102.698H199.744V105.693H231.995V102.698Z" fill="#647AC7"/>
<path d="M194.902 81.3267C194.842 81.2316 194.781 81.1375 194.721 81.0425C194.67 80.9619 194.619 80.8813 194.568 80.8008C194.555 80.7809 194.543 80.7619 194.532 80.7419C194.699 80.7935 194.866 80.843 195.033 80.8904C195.047 80.913 195.061 80.9366 195.077 80.9592C195.118 81.0235 195.158 81.0886 195.2 81.1529C195.206 81.1638 195.212 81.1737 195.216 81.1837C195.288 81.3584 195.015 81.5023 194.902 81.3267Z" fill="white" stroke="white"/>
<path d="M225.225 81.3267C225.286 81.2316 225.347 81.1375 225.406 81.0425C225.458 80.9619 225.509 80.8813 225.559 80.8008C225.572 80.7809 225.585 80.7619 225.596 80.7419C225.429 80.7935 225.262 80.843 225.094 80.8904C225.08 80.913 225.066 80.9366 225.051 80.9592C225.01 81.0235 224.969 81.0886 224.928 81.1529C224.921 81.1638 224.916 81.1737 224.911 81.1837C224.84 81.3584 225.112 81.5023 225.225 81.3267Z" fill="white" stroke="white"/>
<path d="M213.888 70.3722H212.44C212.308 70.3722 212.181 70.3197 212.088 70.2263C211.995 70.133 211.942 70.0063 211.942 69.8743C211.942 69.7423 211.995 69.6156 212.088 69.5223C212.181 69.4289 212.308 69.3765 212.44 69.3765H213.888C214.02 69.3765 214.147 69.4289 214.24 69.5223C214.334 69.6156 214.386 69.7423 214.386 69.8743C214.386 70.0063 214.334 70.133 214.24 70.2263C214.147 70.3197 214.02 70.3722 213.888 70.3722Z" fill="white" stroke="white"/>
<path d="M202.493 61.3489C202.311 61.3503 202.13 61.3311 201.952 61.2917C201.149 61.1063 200.852 60.7536 200.803 60.5745C200.793 60.5471 200.79 60.5173 200.795 60.4884C200.8 60.4595 200.813 60.4326 200.833 60.4106C200.853 60.3934 200.878 60.3823 200.904 60.3786C200.93 60.375 200.957 60.3789 200.981 60.39C201.231 60.4733 204.769 59.7736 206.026 59.4837C206.548 59.3631 206.915 59.383 207.116 59.5427C207.156 59.5727 207.19 59.6112 207.215 59.6555C207.239 59.6998 207.254 59.7488 207.258 59.7993V59.8308L204.786 60.7461C204.706 60.7859 203.555 61.3489 202.493 61.3489Z" fill="white" stroke="white"/>
<path d="M221.847 72.2558C221.83 72.2558 221.812 72.2506 221.798 72.241C221.783 72.2314 221.771 72.2177 221.764 72.2016L217.102 61.597C217.081 61.5477 217.045 61.506 217 61.4771C216.954 61.4483 216.902 61.4335 216.848 61.4348L204.091 61.6952C204.046 61.696 204.001 61.7083 203.961 61.731C203.922 61.7537 203.889 61.7861 203.865 61.825L197.743 71.8365C197.73 71.857 197.71 71.8716 197.687 71.8773C197.663 71.8829 197.639 71.879 197.618 71.8665C197.598 71.854 197.583 71.8338 197.577 71.8105C197.572 71.7872 197.576 71.7626 197.588 71.7421L203.711 61.7306C203.75 61.6656 203.805 61.6117 203.871 61.5739C203.937 61.5361 204.011 61.5155 204.087 61.5141L216.844 61.2538C216.934 61.252 217.022 61.2767 217.097 61.3248C217.172 61.3729 217.232 61.4423 217.268 61.5241L221.93 72.1288C221.936 72.1426 221.939 72.1576 221.937 72.1726C221.936 72.1876 221.931 72.202 221.923 72.2146C221.915 72.2272 221.904 72.2376 221.89 72.2448C221.877 72.252 221.862 72.2557 221.847 72.2558Z" fill="white" stroke="white"/>
<path d="M207.076 72.6352C207.057 72.6352 207.038 72.6288 207.022 72.617C207.006 72.6052 206.995 72.5886 206.989 72.5697L204.039 62.3031C204.032 62.28 204.035 62.2553 204.047 62.2343C204.058 62.2134 204.078 62.1979 204.101 62.1913C204.124 62.1846 204.148 62.1874 204.169 62.199C204.19 62.2106 204.206 62.23 204.213 62.253L207.163 72.5196C207.167 72.5311 207.168 72.543 207.166 72.5548C207.165 72.5667 207.161 72.5781 207.156 72.5885C207.15 72.5989 207.142 72.608 207.133 72.6155C207.124 72.6229 207.113 72.6284 207.101 72.6316C207.093 72.634 207.085 72.6352 207.076 72.6352Z" fill="white" stroke="white"/>
<path d="M222.578 73.6485C222.878 73.6485 223.121 73.4053 223.121 73.1054C223.121 72.8054 222.878 72.5623 222.578 72.5623C222.278 72.5623 222.035 72.8054 222.035 73.1054C222.035 73.4053 222.278 73.6485 222.578 73.6485Z" fill="white" stroke="white"/>
<path d="M197.052 73.6485C197.352 73.6485 197.595 73.4053 197.595 73.1054C197.595 72.8054 197.352 72.5623 197.052 72.5623C196.752 72.5623 196.509 72.8054 196.509 73.1054C196.509 73.4053 196.752 73.6485 197.052 73.6485Z" fill="white" stroke="white"/>
<path d="M216.415 57.4309C216.34 57.431 216.268 57.4046 216.211 57.3565C216.154 57.3083 216.115 57.2415 216.103 57.1678C216.09 57.0941 216.104 57.0183 216.142 56.9538C216.179 56.8893 216.239 56.8403 216.309 56.8154L219.04 55.8499C219.119 55.8219 219.207 55.8265 219.282 55.8627C219.358 55.8989 219.417 55.9638 219.445 56.043C219.473 56.1222 219.468 56.2093 219.432 56.2851C219.396 56.3609 219.331 56.4192 219.251 56.4472L216.521 57.4127C216.487 57.4248 216.451 57.4309 216.415 57.4309Z" fill="white" stroke="white"/>
<path d="M209.263 72.5624C209.245 72.5624 209.228 72.5571 209.213 72.5473C209.198 72.5375 209.187 72.5236 209.18 72.5072C209.173 72.4909 209.171 72.4729 209.174 72.4554C209.177 72.4379 209.185 72.4218 209.198 72.409L217.381 63.9275C217.389 63.9189 217.399 63.912 217.41 63.9073C217.421 63.9025 217.433 63.8999 217.444 63.8997C217.456 63.8994 217.468 63.9016 217.479 63.9059C217.49 63.9103 217.5 63.9168 217.509 63.925C217.518 63.9333 217.524 63.9432 217.529 63.9541C217.534 63.965 217.536 63.9768 217.537 63.9887C217.537 64.0006 217.535 64.0124 217.53 64.0235C217.526 64.0346 217.519 64.0447 217.511 64.0532L209.328 72.5347C209.32 72.5435 209.309 72.5504 209.298 72.5552C209.287 72.5599 209.275 72.5624 209.263 72.5624Z" fill="white" stroke="white"/>
<path d="M198.521 73.653C198.497 73.653 198.474 73.6435 198.457 73.6266C198.44 73.6096 198.43 73.5866 198.43 73.5626C198.43 73.5386 198.439 73.5156 198.456 73.4986C198.473 73.4816 198.496 73.472 198.52 73.472L206.081 73.45H206.081C206.105 73.4499 206.128 73.4594 206.145 73.4764C206.162 73.4933 206.172 73.5163 206.172 73.5403C206.172 73.5643 206.162 73.5874 206.145 73.6044C206.128 73.6214 206.105 73.631 206.081 73.631L198.521 73.653H198.521Z" fill="white" stroke="white"/>
<path d="M216.961 60.6655C216.94 60.6654 216.92 60.6583 216.904 60.6453C216.888 60.6323 216.876 60.6141 216.872 60.5939L216.449 58.6166C216.446 58.6034 216.446 58.5898 216.449 58.5766C216.452 58.5635 216.458 58.5512 216.467 58.5407C216.475 58.5303 216.486 58.5218 216.498 58.516C216.51 58.5102 216.524 58.5071 216.537 58.5071H217.973V57.5366C217.973 57.5126 217.983 57.4895 218 57.4726C218.017 57.4556 218.04 57.446 218.064 57.446C218.088 57.446 218.111 57.4556 218.128 57.4726C218.145 57.4895 218.154 57.5126 218.154 57.5366V58.5977C218.154 58.6217 218.145 58.6447 218.128 58.6617C218.111 58.6786 218.088 58.6882 218.064 58.6882H216.649L217.049 60.556C217.052 60.5692 217.052 60.5829 217.049 60.596C217.046 60.6091 217.04 60.6214 217.031 60.6319C217.023 60.6424 217.012 60.6509 217 60.6567C216.987 60.6625 216.974 60.6655 216.961 60.6655Z" fill="white" stroke="white"/>
<path d="M207.71 75.9845C207.352 75.9845 207.002 75.8783 206.704 75.6794C206.407 75.4804 206.175 75.1977 206.038 74.8669C205.901 74.5361 205.865 74.1721 205.935 73.8209C206.005 73.4698 206.177 73.1472 206.43 72.894C206.683 72.6408 207.006 72.4684 207.357 72.3986C207.708 72.3287 208.072 72.3646 208.403 72.5016C208.734 72.6386 209.017 72.8706 209.215 73.1683C209.414 73.4661 209.521 73.8161 209.521 74.1741C209.52 74.6541 209.329 75.1142 208.99 75.4536C208.65 75.793 208.19 75.9839 207.71 75.9845ZM207.71 72.5448C207.388 72.5448 207.073 72.6404 206.805 72.8194C206.537 72.9984 206.328 73.2529 206.205 73.5506C206.082 73.8483 206.049 74.1759 206.112 74.492C206.175 74.808 206.33 75.0983 206.558 75.3262C206.786 75.5541 207.076 75.7093 207.392 75.7721C207.708 75.835 208.036 75.8027 208.334 75.6794C208.631 75.5561 208.886 75.3473 209.065 75.0793C209.244 74.8114 209.34 74.4964 209.34 74.1741C209.339 73.7421 209.167 73.328 208.862 73.0226C208.556 72.7171 208.142 72.5453 207.71 72.5448Z" fill="white" stroke="white"/>
<path d="M209.453 74.6265H208.005C207.873 74.6265 207.746 74.5741 207.653 74.4807C207.559 74.3874 207.507 74.2607 207.507 74.1287C207.507 73.9967 207.559 73.87 207.653 73.7767C207.746 73.6833 207.873 73.6309 208.005 73.6309H209.453C209.585 73.6309 209.712 73.6833 209.805 73.7767C209.898 73.87 209.951 73.9967 209.951 74.1287C209.951 74.2607 209.898 74.3874 209.805 74.4807C209.712 74.5741 209.585 74.6265 209.453 74.6265Z" fill="white" stroke="white"/>
<path d="M197.21 81.2989C195.581 81.2989 193.989 80.8158 192.634 79.9107C191.279 79.0056 190.224 77.7191 189.6 76.214C188.977 74.7089 188.814 73.0526 189.131 71.4548C189.449 69.857 190.234 68.3893 191.386 67.2373C192.538 66.0853 194.005 65.3008 195.603 64.983C197.201 64.6652 198.857 64.8283 200.362 65.4517C201.868 66.0752 203.154 67.1309 204.059 68.4855C204.964 69.8401 205.447 71.4326 205.447 73.0618C205.445 75.2456 204.576 77.3393 203.032 78.8836C201.488 80.4278 199.394 81.2964 197.21 81.2989ZM197.21 65.0057C195.617 65.0057 194.059 65.4782 192.735 66.3634C191.41 67.2486 190.377 68.5068 189.767 69.9789C189.158 71.4509 188.998 73.0707 189.309 74.6334C189.62 76.1962 190.387 77.6316 191.514 78.7583C192.64 79.8849 194.076 80.6522 195.639 80.963C197.201 81.2739 198.821 81.1143 200.293 80.5046C201.765 79.8949 203.023 78.8623 203.909 77.5375C204.794 76.2127 205.266 74.6551 205.266 73.0618C205.264 70.9259 204.414 68.8782 202.904 67.368C201.394 65.8577 199.346 65.0082 197.21 65.0057Z" fill="white" stroke="white"/>
<path d="M222.736 81.2989C221.107 81.2989 219.514 80.8158 218.16 79.9107C216.805 79.0056 215.749 77.7191 215.126 76.214C214.503 74.7089 214.339 73.0526 214.657 71.4548C214.975 69.857 215.76 68.3893 216.912 67.2373C218.064 66.0853 219.531 65.3008 221.129 64.983C222.727 64.6652 224.383 64.8283 225.888 65.4517C227.393 66.0752 228.68 67.1309 229.585 68.4855C230.49 69.8401 230.973 71.4326 230.973 73.0618C230.971 75.2456 230.102 77.3393 228.558 78.8836C227.014 80.4278 224.92 81.2964 222.736 81.2989ZM222.736 65.0057C221.143 65.0057 219.585 65.4782 218.26 66.3634C216.936 67.2486 215.903 68.5068 215.293 69.9789C214.684 71.4509 214.524 73.0707 214.835 74.6334C215.146 76.1962 215.913 77.6316 217.04 78.7583C218.166 79.8849 219.602 80.6522 221.164 80.963C222.727 81.2739 224.347 81.1143 225.819 80.5046C227.291 79.8949 228.549 78.8623 229.434 77.5375C230.32 76.2127 230.792 74.6551 230.792 73.0618C230.79 70.9259 229.94 68.8782 228.43 67.368C226.92 65.8577 224.872 65.0081 222.736 65.0057Z" fill="white" stroke="white"/>
<path d="M172.823 165.905H126.393V170.197H172.823V165.905Z" fill="#E6E6E6"/>
<path d="M172.823 121.426H126.393V159.272H172.823V121.426Z" fill="#647AC7"/>
<path d="M172.69 174.489H140.439V177.484H172.69V174.489Z" fill="#647AC7"/>
<path d="M232.128 165.905H185.698V170.197H232.128V165.905Z" fill="#E6E6E6"/>
<path d="M232.128 121.426H185.698V159.272H232.128V121.426Z" fill="#647AC7"/>
<path d="M231.995 174.489H199.744V177.484H231.995V174.489Z" fill="#647AC7"/>
<path d="M172.823 237.696H126.393V241.987H172.823V237.696Z" fill="#E6E6E6"/>
<path d="M172.823 193.217H126.393V231.063H172.823V193.217Z" fill="#647AC7"/>
<path d="M172.69 246.28H140.439V249.275H172.69V246.28Z" fill="#647AC7"/>
<path d="M232.128 237.696H185.698V241.987H232.128V237.696Z" fill="#E6E6E6"/>
<path d="M232.128 193.217H185.698V231.063H232.128V193.217Z" fill="#647AC7"/>
<path d="M231.995 246.28H199.744V249.275H231.995V246.28Z" fill="#647AC7"/>
<path d="M162.973 139.673V139.881C162.973 139.936 162.973 139.993 162.969 140.048C162.916 142.892 161.923 145.638 160.145 147.858C160.055 147.974 159.961 148.086 159.864 148.198C159.719 148.369 159.57 148.534 159.417 148.696C159.404 148.709 159.39 148.725 159.375 148.738L159.368 148.744C159.351 148.762 159.333 148.782 159.316 148.799C159.046 149.078 158.763 149.345 158.467 149.6C158.407 149.651 158.346 149.703 158.282 149.754C155.992 151.656 153.114 152.707 150.136 152.729C150.115 152.731 150.09 152.731 150.068 152.731H149.992C149.97 152.731 149.948 152.731 149.926 152.729C149.849 152.729 149.774 152.726 149.698 152.724C146.72 152.654 143.858 151.554 141.6 149.611C141.539 149.561 141.477 149.508 141.418 149.453C141.183 149.247 140.957 149.03 140.74 148.806C140.722 148.788 140.705 148.769 140.687 148.751L140.681 148.744C140.665 148.731 140.652 148.716 140.639 148.703C140.455 148.51 140.277 148.31 140.106 148.106C140.012 147.994 139.919 147.88 139.83 147.764C138.097 145.56 137.131 142.851 137.081 140.048C137.076 139.995 137.076 139.94 137.076 139.885V139.681C137.076 139.657 137.076 139.633 137.078 139.609C137.109 136.801 138.058 134.08 139.779 131.86C139.869 131.744 139.961 131.63 140.055 131.518C140.229 131.307 140.411 131.103 140.597 130.904C140.611 130.888 140.624 130.875 140.639 130.86C140.639 130.858 140.641 130.855 140.643 130.853C140.661 130.836 140.679 130.816 140.698 130.798C140.942 130.546 141.196 130.303 141.46 130.07C141.519 130.015 141.58 129.962 141.642 129.912C143.951 127.945 146.879 126.855 149.913 126.834C149.935 126.832 149.959 126.832 149.981 126.832H150.123C153.086 126.85 155.953 127.888 158.241 129.772C158.302 129.824 158.364 129.875 158.425 129.927C158.745 130.199 159.052 130.489 159.344 130.792C159.362 130.809 159.379 130.829 159.397 130.847L159.401 130.851C159.417 130.864 159.432 130.882 159.445 130.895C159.608 131.066 159.763 131.244 159.915 131.424C160.011 131.536 160.103 131.647 160.196 131.764C161.963 134 162.94 136.759 162.971 139.609C162.973 139.63 162.973 139.651 162.973 139.673Z" fill="white"/>
<path d="M150.137 126.884H149.698V152.772H150.137V126.884Z" fill="#647AC7"/>
<path d="M162.973 139.609H136.973V140.048H162.973V139.609Z" fill="#647AC7"/>
<path d="M144.428 139.609C144.393 138.01 143.979 136.442 143.219 135.035C142.458 133.628 141.374 132.423 140.055 131.518C139.961 131.63 139.869 131.744 139.779 131.86C141.047 132.724 142.09 133.877 142.823 135.225C143.555 136.572 143.956 138.075 143.991 139.609C143.994 139.681 143.994 139.754 143.994 139.828C143.994 139.903 143.994 139.975 143.991 140.048C143.956 141.571 143.56 143.064 142.837 144.405C142.113 145.746 141.083 146.897 139.829 147.764C139.919 147.88 140.012 147.994 140.106 148.106C141.41 147.198 142.482 145.995 143.233 144.595C143.984 143.195 144.393 141.636 144.428 140.048C144.432 139.975 144.432 139.901 144.432 139.828C144.432 139.756 144.432 139.681 144.428 139.609Z" fill="#647AC7"/>
<path d="M155.843 140.048C155.841 139.975 155.841 139.903 155.841 139.828C155.841 139.754 155.841 139.681 155.843 139.609C155.879 138.047 156.294 136.516 157.052 135.15C157.81 133.783 158.889 132.621 160.196 131.764C160.103 131.647 160.011 131.535 159.915 131.424C158.559 132.323 157.44 133.537 156.655 134.963C155.87 136.388 155.442 137.982 155.406 139.609C155.402 139.681 155.402 139.756 155.402 139.828C155.402 139.901 155.402 139.975 155.406 140.048C155.441 141.664 155.865 143.249 156.64 144.667C157.416 146.086 158.522 147.297 159.864 148.198C159.961 148.086 160.055 147.974 160.145 147.858C158.853 146.998 157.787 145.839 157.038 144.48C156.289 143.12 155.879 141.6 155.843 140.048Z" fill="#647AC7"/>
<path d="M162.618 54.8653C161.975 54.0912 160.87 53.6726 159.809 53.4464C159.841 53.3494 156.581 52.6743 156.525 52.8134L155.297 51.8318L151.523 53.7981L149.402 52.3496L148.417 52.7005C148.457 52.5262 145.359 53.0644 145.359 53.0644C144.768 53.0859 144.011 53.1229 143.165 53.1884C140.201 53.4172 139.973 61.1176 139.973 61.1176C141.337 60.5579 142.791 60.2525 144.263 60.2163L145.064 82.7642C149.184 82.4096 153.505 82.8224 157.982 83.8318L160.082 63.2546L164.973 61.3464C164.973 61.3464 164.138 56.6957 162.618 54.8653Z" fill="white"/>
<path d="M221.864 203.896C221.015 202.859 219.556 202.298 218.156 201.995C218.196 201.866 213.895 200.961 213.822 201.147L212.201 199.832L207.219 202.466L204.419 200.525L203.119 200.995C203.172 200.761 199.082 201.483 199.082 201.483C198.301 201.511 197.303 201.561 196.186 201.649C192.274 201.955 191.973 212.271 191.973 212.271C193.773 211.521 195.692 211.112 197.636 211.064L198.693 223.402C204.131 222.927 209.834 223.479 215.746 224.832L218.518 215.133L224.973 212.577C224.973 212.577 223.87 206.347 221.864 203.896Z" fill="white"/>
<path d="M198.973 152.966L200.844 153.748L209.771 141.765L212.577 155.832L214.448 155.485C215.648 143.357 216.627 130.987 215.425 125.136L208.496 124.832L205.35 135.08L203.82 142.027L198.973 152.966Z" fill="white"/>
<path d="M136.556 201.166L144.758 197.832L145.712 214.5C145.712 214.5 147.428 219.599 146.856 221.56C146.856 221.56 147.238 224.894 146.284 225.09C145.33 225.286 142.659 225.678 142.47 225.482C142.282 225.285 142.28 224.697 142.28 224.697C142.28 224.697 140.372 226.07 140.181 227.638C140.181 227.638 132.17 230.188 131.979 227.834C131.789 225.481 135.985 223.52 135.985 223.52L139.228 218.422L136.556 201.166Z" fill="white"/>
<path d="M154.557 201.166L162.758 197.832L163.712 214.5C163.712 214.5 165.428 219.599 164.856 221.56C164.856 221.56 165.238 224.894 164.284 225.09C163.33 225.286 160.659 225.678 160.47 225.482C160.282 225.285 160.28 224.697 160.28 224.697C160.28 224.697 158.372 226.07 158.181 227.638C158.181 227.638 150.17 230.188 149.979 227.834C149.789 225.481 153.985 223.52 153.985 223.52L157.228 218.422L154.557 201.166Z" fill="white"/>
</svg>
