<svg width="404" height="451" viewBox="0 0 404 451" fill="none" xmlns="http://www.w3.org/2000/svg">
<path d="M10.7167 231.086L91.9243 211.633C95.843 210.695 99.9645 211.117 103.611 212.831C107.258 214.545 110.213 217.449 111.991 221.066L196.621 393.239C197.544 395.117 198.045 397.174 198.089 399.266C198.133 401.358 197.719 403.435 196.875 405.35C196.032 407.265 194.78 408.972 193.207 410.352C191.634 411.732 189.778 412.752 187.77 413.339L105.273 437.45C100.856 438.741 96.1195 438.38 91.9481 436.436C87.7768 434.491 84.4555 431.096 82.6038 426.882L28.5036 303.78L26.8905 304.69L16.5945 281.368L18.2703 280.495L3.169 246.133C2.52218 244.661 2.20802 243.065 2.24891 241.458C2.2898 239.85 2.68473 238.272 3.40556 236.835C4.12638 235.398 5.15535 234.138 6.4191 233.144C7.68285 232.15 9.15027 231.448 10.7167 231.086Z" fill="#3F3D56"/>
<path d="M82.1732 218.118L91.6526 215.847C94.3749 215.195 97.2383 215.493 99.7676 216.693C102.297 217.893 104.34 219.921 105.557 222.442L188.185 393.525C188.66 394.51 188.918 395.586 188.94 396.679C188.961 397.773 188.747 398.859 188.311 399.862C187.875 400.865 187.227 401.762 186.412 402.492C185.598 403.222 184.635 403.768 183.59 404.091L101.685 429.478C99.374 430.194 96.8805 430.034 94.68 429.029C92.4796 428.024 90.7262 426.244 89.7545 424.029L11.4518 245.497C10.945 244.342 10.698 243.089 10.7282 241.827C10.7583 240.566 11.065 239.327 11.6265 238.197C12.188 237.067 12.9907 236.074 13.9778 235.288C14.965 234.502 16.1126 233.942 17.3397 233.648L26.3323 231.494C27.2027 231.286 28.1175 231.37 28.9351 231.734C29.7528 232.098 30.4277 232.721 30.8553 233.507C31.2327 234.202 31.8285 234.752 32.5504 235.073C33.2722 235.394 34.0798 235.469 34.8482 235.285L77.5395 225.058C79.0441 224.698 80.3573 223.783 81.2164 222.496C82.0754 221.209 82.4172 219.646 82.1732 218.118Z" fill="white"/>
<path d="M22.9141 264.767L113.187 243.143L133.184 284.172L42.1359 307.766L22.9141 264.767Z" fill="#647AC7"/>
<path d="M128.296 326.294L149.549 321.203L151.199 325.11L129.946 330.201L128.296 326.294Z" fill="#647AC7"/>
<path d="M140.616 301.397L50.9393 324.897L51.0499 325.319L140.727 301.819L140.616 301.397Z" fill="#2F2E41"/>
<path d="M146.37 313.249L55.0475 337.368L55.1589 337.79L146.482 313.671L146.37 313.249Z" fill="#2F2E41"/>
<path d="M147.5 367.73L168.753 362.639L170.403 366.546L149.15 371.637L147.5 367.73Z" fill="#647AC7"/>
<path d="M159.82 342.832L70.1434 366.332L70.254 366.754L159.931 343.254L159.82 342.832Z" fill="#2F2E41"/>
<path d="M165.574 354.685L74.2516 378.803L74.363 379.225L165.686 355.106L165.574 354.685Z" fill="#2F2E41"/>
<path d="M166.855 395.196L167.532 427.455L188.355 438.492L226.276 431.7L227.207 398.167L203.168 389.677L166.855 395.196Z" fill="white"/>
<path d="M187.827 438.492L166.658 427.466L165.968 395.174L202.778 389.677L202.856 389.705L227.208 398.155L226.259 431.728L187.827 438.492ZM167.317 427.065L187.936 437.804L225.607 431.175L226.527 398.616L202.713 390.352L166.648 395.738L167.317 427.065Z" fill="#CACACA"/>
<path d="M187.955 403.878L187.873 403.846L166.855 395.61L167.1 395.002L188.037 403.207L227.117 397.894L227.207 398.542L187.955 403.878Z" fill="#CACACA"/>
<path d="M188.026 403.575L187.36 403.583L187.784 438.42L188.45 438.412L188.026 403.575Z" fill="#CACACA"/>
<path d="M183.3 401.215L177.506 398.939L214.314 393.228L220.107 395.504L183.3 401.215Z" fill="#CACACA"/>
<path d="M166.719 404.532L166.456 405.143L175.28 408.942L175.543 408.331L166.719 404.532Z" fill="#CACACA"/>
<path d="M170.715 415.52L170.452 416.131L179.275 419.93L179.539 419.319L170.715 415.52Z" fill="#647AC7"/>
<path d="M203.244 399.649L204.031 437.187L228.222 450.029L272.277 442.127L273.359 403.106L245.431 393.228L203.244 399.649Z" fill="#647AC7"/>
<path d="M227.701 450.029L203.156 437.2L202.357 399.624L245.035 393.228L245.126 393.259L273.359 403.093L272.259 442.159L227.701 450.029ZM203.92 436.733L227.827 449.23L271.503 441.515L272.57 403.629L244.96 394.013L203.145 400.28L203.92 436.733Z" fill="#3F3D56"/>
<path d="M227.179 410.091L227.084 410.052L202.357 400.169L202.645 399.44L227.276 409.285L273.252 402.91L273.359 403.687L227.179 410.091Z" fill="#3F3D56"/>
<path d="M227.698 409.34L226.925 409.35L227.416 449.789L228.19 449.779L227.698 409.34Z" fill="#3F3D56"/>
<path d="M222.768 406.54L215.67 403.999L258.272 397.665L265.371 400.206L222.768 406.54Z" fill="#3F3D56"/>
<path d="M202.964 410.451L202.659 411.161L212.901 415.571L213.207 414.861L202.964 410.451Z" fill="#3F3D56"/>
<path d="M207.602 423.206L207.297 423.916L217.539 428.326L217.845 427.616L207.602 423.206Z" fill="white"/>
<path d="M62.4418 216.254C74.536 195.937 101.347 187.236 124.826 189.648C132.515 190.487 140.047 192.151 147.287 194.61C151.488 196.003 155.622 197.611 159.697 199.38C160.699 199.813 161.703 200.255 162.699 200.71C163.377 201.015 164.053 201.326 164.728 201.642C173.184 205.592 181.404 210.102 189.495 214.6C209.694 225.828 230.452 237.413 253.82 240.457C258.634 241.084 264.706 240.734 267.058 236.476C269.098 232.779 266.958 228.392 264.385 225.229C254.842 213.514 239.597 207.67 224.594 203.728C209.592 199.787 193.913 197.187 180.367 190.011C166.82 182.835 155.45 169.719 155.968 154.458C156.415 141.307 165.847 129.095 177.829 122.447C189.812 115.802 203.941 114.067 217.426 114.801C230.912 115.537 244.029 118.574 257.258 120.869C265.234 122.255 275.439 122.424 279.671 115.465C283.244 109.585 279.695 101.858 273.919 98.4383C268.143 95.0187 260.914 94.7647 254.028 94.6043C232.647 94.1028 211.266 93.6023 189.885 93.1028C183.327 92.9519 176.611 92.7691 170.6 90.4376C164.59 88.1092 159.328 83.1594 158.642 76.8498C157.968 70.6307 161.934 64.3672 167.329 60.6546C172.721 56.9457 179.317 55.4029 185.775 54.6176C209.976 51.6768 283.889 76.8943 301.061 78.8172C312.095 80.0497 324.312 82.5326 330.108 91.5444C337.325 102.763 330.124 119.019 318.339 126.683C306.558 134.349 291.866 135.565 277.958 135.995C264.05 136.425 249.623 136.421 236.808 142.213C223.994 148.004 213.374 161.638 216.467 174.652C219.16 185.976 231.09 192.841 242.93 194.758C252.199 196.26 261.74 195.486 271.234 195.266C273.869 195.201 276.5 195.184 279.12 195.267C285.829 195.486 292.465 196.384 298.922 197.947C305.697 199.581 312.239 201.924 318.437 204.935C323.38 207.332 328.078 210.154 332.476 213.37C333.147 213.861 333.814 214.367 334.476 214.887C335.106 215.385 335.732 215.897 336.347 216.422C344.342 223.228 350.777 232.185 350.606 242.559C350.435 252.906 343.408 262.68 334.238 268.352C328.897 271.562 323.016 273.777 316.913 274.875C312.443 275.717 307.919 276.161 303.401 276.201C282.508 276.494 262.46 270.067 243.348 262.672C224.239 255.276 205.444 246.791 185.193 242.635C164.942 238.476 142.603 239.034 123.971 249.017C105.339 258.996 91.7504 279.953 95.3923 299.75C80.9893 291.179 68.1605 279.518 61.1585 264.546C54.1565 249.575 53.66 231.009 62.4418 216.254Z" fill="#3F3D56"/>
<path d="M159.884 225.302C161.019 224.704 161.48 223.348 160.913 222.272C160.346 221.196 158.967 220.808 157.832 221.406C156.698 222.004 156.237 223.36 156.804 224.436C157.37 225.512 158.75 225.9 159.884 225.302Z" fill="#647AC7"/>
<path d="M83.9213 268.866C85.6757 267.942 86.3877 265.845 85.5117 264.181C84.6357 262.518 82.5033 261.918 80.749 262.842C78.9946 263.766 78.2825 265.864 79.1586 267.527C80.0346 269.191 82.1669 269.79 83.9213 268.866Z" fill="#FF6584"/>
<path d="M299.483 121.299C300.132 120.957 300.395 120.182 300.071 119.568C299.747 118.953 298.959 118.732 298.311 119.073C297.663 119.414 297.4 120.189 297.724 120.804C298.047 121.419 298.835 121.64 299.483 121.299Z" fill="#FF6584"/>
<path d="M244.236 73.9969C244.885 73.6555 245.148 72.8805 244.824 72.2659C244.5 71.6514 243.713 71.4299 243.064 71.7713C242.416 72.1127 242.153 72.8876 242.477 73.5022C242.8 74.1168 243.588 74.3383 244.236 73.9969Z" fill="#FF6584"/>
<path d="M271.262 198.561C271.115 197.474 271.105 196.367 271.234 195.266C273.869 195.201 276.5 195.184 279.12 195.267C285.829 195.486 292.465 196.384 298.922 197.947C298.351 201.169 296.617 204.136 294.033 206.31C291.45 208.484 288.189 209.72 284.842 209.794C281.495 209.869 278.284 208.776 275.793 206.715C273.301 204.654 271.693 201.761 271.262 198.561Z" fill="#FF6584"/>
<path d="M102.5 241.179C103.163 240.83 103.433 240.037 103.101 239.409C102.77 238.78 101.965 238.554 101.302 238.903C100.639 239.252 100.37 240.045 100.701 240.673C101.032 241.302 101.838 241.528 102.5 241.179Z" fill="#F0F0F0"/>
<path d="M205.221 79.52C205.884 79.1709 206.153 78.3783 205.822 77.7497C205.491 77.1211 204.685 76.8946 204.022 77.2438C203.359 77.5929 203.09 78.3855 203.421 79.0141C203.752 79.6427 204.558 79.8692 205.221 79.52Z" fill="#F0F0F0"/>
<path d="M183.737 64.9397C184.4 64.5905 184.669 63.7979 184.338 63.1694C184.007 62.5408 183.201 62.3143 182.538 62.6635C181.875 63.0126 181.606 63.8052 181.937 64.4338C182.268 65.0623 183.074 65.2888 183.737 64.9397Z" fill="#F0F0F0"/>
<path d="M308.533 95.7422C309.196 95.393 309.465 94.6005 309.134 93.9719C308.803 93.3433 307.997 93.1168 307.334 93.466C306.671 93.8151 306.402 94.6077 306.733 95.2363C307.064 95.8648 307.87 96.0913 308.533 95.7422Z" fill="#F0F0F0"/>
<path d="M246.34 130.585C247.003 130.236 247.272 129.443 246.941 128.815C246.61 128.186 245.804 127.96 245.141 128.309C244.478 128.658 244.209 129.451 244.54 130.079C244.871 130.708 245.677 130.934 246.34 130.585Z" fill="#F0F0F0"/>
<path d="M270.051 256.762C270.713 256.413 270.983 255.62 270.652 254.991C270.32 254.363 269.515 254.136 268.852 254.485C268.189 254.835 267.92 255.627 268.251 256.256C268.582 256.884 269.388 257.111 270.051 256.762Z" fill="#F0F0F0"/>
<path d="M176.104 169.867C176.767 169.518 177.036 168.725 176.705 168.097C176.374 167.468 175.568 167.242 174.905 167.591C174.242 167.94 173.973 168.732 174.304 169.361C174.635 169.99 175.441 170.216 176.104 169.867Z" fill="#F0F0F0"/>
<path d="M163.085 149.234C163.748 148.885 164.017 148.092 163.686 147.464C163.355 146.835 162.549 146.609 161.886 146.958C161.223 147.307 160.954 148.099 161.285 148.728C161.616 149.357 162.422 149.583 163.085 149.234Z" fill="#F0F0F0"/>
<path d="M298.399 246.562C297.517 240.088 298.245 233.436 300.522 227.154C300.823 226.325 301.15 225.506 301.503 224.696C304.995 216.664 310.908 209.764 318.437 204.935C323.38 207.332 328.078 210.154 332.476 213.369C333.147 213.861 333.814 214.367 334.476 214.886C335.106 215.385 335.732 215.896 336.347 216.422C344.342 223.228 350.777 232.185 350.606 242.559C350.435 252.906 343.408 262.68 334.238 268.352C328.897 271.562 323.016 273.777 316.913 274.875C311.571 271.603 307.11 267.171 303.861 261.91C303.452 261.248 303.067 260.572 302.696 259.885C300.478 255.748 299.024 251.242 298.399 246.562Z" fill="#647AC7"/>
<path d="M278.713 247.718C277.867 241.435 283.447 234.536 294.427 228.285C296.624 227.033 299.547 226.619 301.503 224.696C310.994 215.367 322.391 212.195 334.476 214.886C335.106 215.385 335.732 215.896 336.347 216.422C336.215 216.441 336.083 216.463 335.952 216.485C322.712 218.715 310.369 222.448 300.522 227.154C298.703 228.024 296.061 228.166 295.331 229.86C289.465 243.462 280.75 243.647 280.591 247.402C280.358 252.885 288.137 257.143 299.296 259.31C300.401 259.525 301.534 259.717 302.696 259.885C303.067 260.572 303.452 261.248 303.861 261.91C302.129 261.689 300.458 261.424 298.848 261.113C286.709 258.756 279.559 253.998 278.713 247.718Z" fill="#E4E4E4"/>
<path d="M340.624 262.766C341.287 262.417 341.556 261.624 341.225 260.996C340.894 260.367 340.088 260.141 339.425 260.49C338.763 260.839 338.493 261.632 338.824 262.26C339.156 262.889 339.961 263.115 340.624 262.766Z" fill="#F0F0F0"/>
<path d="M311.677 259.313C312.34 258.964 312.609 258.171 312.278 257.543C311.947 256.914 311.141 256.688 310.478 257.037C309.816 257.386 309.546 258.178 309.877 258.807C310.209 259.436 311.014 259.662 311.677 259.313Z" fill="#F0F0F0"/>
<path d="M329.554 253.849C336.001 250.453 338.618 242.746 335.399 236.633C332.18 230.521 324.344 228.318 317.897 231.713C311.45 235.109 308.833 242.816 312.052 248.929C315.272 255.041 323.108 257.244 329.554 253.849Z" fill="#F0F0F0"/>
<path opacity="0.3" d="M75.8865 217.018C78.6792 215.703 84.9996 214.015 91.9901 212.455C98.9778 210.899 106.676 209.436 114.278 207.995C127.583 205.47 140.888 202.945 154.191 200.418C156.02 200.07 157.855 199.724 159.697 199.38C160.699 199.813 161.703 200.254 162.698 200.71C161.061 200.976 159.425 201.261 157.805 201.565C150.886 202.866 145.082 204.377 138.425 205.751C128.182 207.868 117.026 209.439 106.275 211.092C95.5234 212.742 83.3052 214.859 75.8865 217.018Z" fill="#F0F0F0"/>
<path opacity="0.3" d="M267.872 87.4481L315.004 114.437L268.9 85.8759C268.803 85.7595 268.677 85.6685 268.534 85.6105C268.39 85.5526 268.233 85.5293 268.075 85.5427C267.917 85.5561 267.763 85.6057 267.626 85.6874C267.488 85.7691 267.372 85.8806 267.285 86.0126C267.199 86.1446 267.145 86.2933 267.129 86.4464C267.113 86.5995 267.134 86.7526 267.191 86.893C267.249 87.0333 267.34 87.1569 267.459 87.2534C267.577 87.35 267.719 87.4167 267.872 87.4481Z" fill="#F0F0F0"/>
<path d="M318.346 213.772C319.009 213.423 319.278 212.63 318.947 212.001C318.616 211.373 317.81 211.146 317.147 211.495C316.484 211.845 316.215 212.637 316.546 213.266C316.877 213.894 317.683 214.121 318.346 213.772Z" fill="#F0F0F0"/>
</svg>
